<?xml version="1.0" encoding="UTF-8" standalone="no"?>
<svg
   id="outlined"
   viewBox="0 0 24 24"
   version="1.1"
   sodipodi:docname="Appgate-Icon-Library_032021_Controller Thicker.svg"
   width="24"
   height="24"
   inkscape:version="1.1 (c4e8f9e, 2021-05-24)"
   xmlns:inkscape="http://www.inkscape.org/namespaces/inkscape"
   xmlns:sodipodi="http://sodipodi.sourceforge.net/DTD/sodipodi-0.dtd"
   xmlns="http://www.w3.org/2000/svg"
   xmlns:svg="http://www.w3.org/2000/svg">
  <defs
     id="defs833" />
  <sodipodi:namedview
     id="namedview831"
     pagecolor="#ffffff"
     bordercolor="#666666"
     borderopacity="1.0"
     inkscape:pageshadow="2"
     inkscape:pageopacity="0.0"
     inkscape:pagecheckerboard="true"
     showgrid="false"
     lock-margins="false"
     inkscape:zoom="5.8828125"
     inkscape:cx="63.915007"
     inkscape:cy="64"
     inkscape:window-width="2560"
     inkscape:window-height="1323"
     inkscape:window-x="1792"
     inkscape:window-y="707"
     inkscape:window-maximized="0"
     inkscape:current-layer="outlined" />
  <path
     d="m 12.000002,20.015624 a 8.2143735,8.2143735 0 0 1 -0.87375,-0.04875 l -0.129375,-0.01312 -0.26625,-1.578751 A 6.4368748,6.4368748 0 0 1 9.2793767,17.906257 l -1.1418757,1.125 -0.1125,-0.06563 A 8.0474993,8.0474993 0 0 1 6.6093767,17.94 L 6.5137517,17.85187 7.2262515,16.417494 A 6.4537499,6.4537499 0 0 1 6.3281267,15.1875 l -1.5825,0.2325 -0.058125,-0.127501 A 7.8918758,7.8918758 0 0 1 4.1456267,13.63125 L 4.1250018,13.5 5.5443766,12.749999 a 6.4781249,6.4781249 0 0 1 0,-1.524374 L 4.1250018,10.499999 4.1512517,10.3725 a 7.8918758,7.8918758 0 0 1 0.53625,-1.666875 l 0.052501,-0.1181258 1.5825,0.2343743 a 6.4649999,6.4649999 0 0 1 0.898124,-1.2337493 l -0.7125,-1.4343744 0.095625,-0.088125 a 8.0343735,8.0343735 0 0 1 1.41375,-1.0256249 l 0.1143751,-0.063749 1.1418757,1.125 A 6.5362498,6.5362498 0 0 1 10.730627,5.625 l 0.26625,-1.5768749 0.129376,-0.014999 a 8.2499993,8.2499993 0 0 1 1.747498,0 l 0.129376,0.014998 0.26625,1.5768748 a 6.5362498,6.5362498 0 0 1 1.451249,0.4706251 l 1.141876,-1.1250001 0.114373,0.063749 a 8.0343735,8.0343735 0 0 1 1.413752,1.0256254 l 0.09562,0.088126 L 16.773745,7.5825 a 6.4649999,6.4649999 0 0 1 0.898126,1.2337492 l 1.5825,-0.2343742 0.05249,0.1181242 a 7.8918758,7.8918758 0 0 1 0.541876,1.6612518 l 0.02627,0.138748 L 18.455629,11.25 a 6.4781249,6.4781249 0 0 1 0,1.524375 L 19.875003,13.5 l -0.02626,0.127499 a 7.8562508,7.8562508 0 0 1 -0.536249,1.665 l -0.05249,0.118127 -1.5825,-0.234375 A 6.4649999,6.4649999 0 0 1 16.779378,16.41 l 0.7125,1.434373 -0.09563,0.08813 a 8.0343735,8.0343735 0 0 1 -1.413749,1.025624 l -0.114376,0.06564 -1.141876,-1.125 a 6.3468748,6.3468748 0 0 1 -1.456868,0.476236 l -0.26625,1.578751 -0.129376,0.01313 a 8.1862493,8.1862493 0 0 1 -0.873749,0.04874 z"
     style="fill:none;stroke:#912010;stroke-width:0.937508px;stroke-linecap:round;stroke-linejoin:round"
     id="path824" />
  <path
     d="m 12.410627,15.125624 a 3.1537498,3.1537498 0 1 1 2.714999,-2.713125 3.1556251,3.1556251 0 0 1 -2.714999,2.713125 z"
     style="fill:none;stroke:#912010;stroke-width:0.937508px;stroke-linecap:round;stroke-linejoin:round"
     id="path826" />
  <path
     d="M 12.000002,0.93749992 A 11.062499,11.062499 0 1 1 0.9375016,12 11.075624,11.075624 0 0 1 12.000002,0.93749992 M 12.000002,0 A 12,12 0 1 0 24.000001,12 12,12 0 0 0 12.000002,0 Z"
     style="fill:#912010;stroke-width:0.187501"
     id="path828" />
</svg>
