<?xml version="1.0" encoding="UTF-8" standalone="no"?>
<svg
   width="16"
   height="16"
   overflow="hidden"
   version="1.1"
   id="svg948"
   sodipodi:docname="controller14px.svg"
   inkscape:version="1.1 (c4e8f9e, 2021-05-24)"
   xmlns:inkscape="http://www.inkscape.org/namespaces/inkscape"
   xmlns:sodipodi="http://sodipodi.sourceforge.net/DTD/sodipodi-0.dtd"
   xmlns="http://www.w3.org/2000/svg"
   xmlns:svg="http://www.w3.org/2000/svg">
  <sodipodi:namedview
     id="namedview950"
     pagecolor="#ffffff"
     bordercolor="#666666"
     borderopacity="1.0"
     inkscape:pageshadow="2"
     inkscape:pageopacity="0.0"
     inkscape:pagecheckerboard="0"
     showgrid="false"
     inkscape:snap-bbox="true"
     inkscape:zoom="5.9379845"
     inkscape:cx="79.404047"
     inkscape:cy="63.489556"
     inkscape:window-width="1792"
     inkscape:window-height="992"
     inkscape:window-x="0"
     inkscape:window-y="25"
     inkscape:window-maximized="0"
     inkscape:current-layer="svg948"
     fit-margin-top="0"
     fit-margin-left="0"
     fit-margin-right="0"
     fit-margin-bottom="0" />
  <defs
     id="defs932">
    <clipPath
       id="clip0">
      <rect
         x="472"
         y="233"
         width="129"
         height="129"
         id="rect920" />
    </clipPath>
    <clipPath
       id="clip1">
      <rect
         x="473"
         y="234"
         width="128"
         height="128"
         id="rect923" />
    </clipPath>
    <clipPath
       id="clip2">
      <rect
         x="473"
         y="234"
         width="128"
         height="128"
         id="rect926" />
    </clipPath>
    <clipPath
       id="clip3">
      <rect
         x="473"
         y="234"
         width="128"
         height="128"
         id="rect929" />
    </clipPath>
  </defs>
  <g
     clip-path="url(#clip0)"
     transform="matrix(0.109375,0,0,0.109375,-50.734375,-24.59375)"
     id="g946">
    <g
       clip-path="url(#clip1)"
       id="g944">
      <g
         clip-path="url(#clip2)"
         id="g942">
        <g
           clip-path="url(#clip3)"
           id="g940">
          <path
             d="m 537,343.25 c -1.647,-0.002 -3.293,-0.092 -4.93,-0.27 l -0.69,-0.08 c -1.112,-0.12 -2.008,-0.966 -2.19,-2.07 L 528,334.07 c -1.702,-0.419 -3.373,-0.957 -5,-1.61 l -4.89,4.78 c -0.8,0.786 -2.025,0.945 -3,0.39 l -0.6,-0.35 c -2.867,-1.636 -5.55,-3.578 -8,-5.79 L 506.06,331 c -0.849,-0.755 -1.08,-1.989 -0.56,-3 l 3,-6.15 c -1.128,-1.342 -2.161,-2.763 -3.09,-4.25 l -6.78,1 c -1.084,0.167 -2.151,-0.393 -2.63,-1.38 l -0.28,-0.64 c -1.361,-3.005 -2.388,-6.15 -3.06,-9.38 l -0.14,-0.68 c -0.225,-1.093 0.301,-2.203 1.29,-2.72 l 6.08,-3.18 c -0.06,-0.89 -0.09,-1.77 -0.09,-2.63 0,-0.86 0,-1.73 0.09,-2.62 l -6.08,-3.18 c -0.989,-0.517 -1.515,-1.627 -1.29,-2.72 l 0.14,-0.68 c 0.674,-3.232 1.7,-6.381 3.06,-9.39 l 0.28,-0.63 c 0.462,-1.019 1.544,-1.607 2.65,-1.44 l 6.78,1 c 0.929,-1.487 1.962,-2.908 3.09,-4.25 l -3,-6.15 c -0.52,-1.011 -0.289,-2.245 0.56,-3 l 0.51,-0.47 c 2.452,-2.21 5.134,-4.151 8,-5.79 l 0.6,-0.34 c 0.973,-0.558 2.197,-0.402 3,0.38 l 4.81,4.83 c 1.625,-0.661 3.296,-1.203 5,-1.62 l 1.14,-6.76 c 0.19,-1.103 1.087,-1.948 2.2,-2.07 l 0.69,-0.07 c 3.277,-0.36 6.583,-0.36 9.86,0 l 0.69,0.07 c 1.113,0.122 2.01,0.967 2.2,2.07 l 1.22,6.76 c 1.704,0.417 3.375,0.959 5,1.62 l 4.89,-4.79 c 0.803,-0.782 2.027,-0.938 3,-0.38 l 0.6,0.34 c 2.867,1.636 5.55,3.578 8,5.79 l 0.51,0.47 c 0.849,0.755 1.08,1.989 0.56,3 l -3,6.15 c 1.128,1.342 2.161,2.763 3.09,4.25 l 6.78,-1 c 1.071,-0.146 2.112,0.421 2.57,1.4 l 0.29,0.63 c 1.363,3.008 2.389,6.157 3.06,9.39 l 0.14,0.68 c 0.225,1.093 -0.301,2.203 -1.29,2.72 l -6.08,3.18 c 0.06,0.89 0.09,1.77 0.09,2.62 0,0.85 0,1.74 -0.09,2.63 l 6.08,3.18 c 0.989,0.517 1.515,1.627 1.29,2.72 l -0.14,0.68 c -0.671,3.233 -1.697,6.382 -3.06,9.39 l -0.29,0.63 c -0.455,1.02 -1.536,1.609 -2.64,1.44 l -6.78,-1 c -0.927,1.489 -1.959,2.909 -3.09,4.25 l 3,6.15 c 0.503,0.981 0.304,2.175 -0.49,2.94 l -0.52,0.47 c -2.447,2.216 -5.13,4.158 -8,5.79 l -0.6,0.35 c -0.975,0.555 -2.2,0.396 -3,-0.39 L 551,332.45 c -1.625,0.661 -3.296,1.202 -5,1.62 l -1.14,6.76 c -0.19,1.103 -1.087,1.948 -2.2,2.07 l -0.69,0.08 c -1.651,0.179 -3.31,0.269 -4.97,0.27 z m -3.2,-5.13 c 2.13,0.17 4.27,0.17 6.4,0 l 1.11,-6.54 c 0.187,-1.017 0.983,-1.813 2,-2 2.477,-0.491 4.887,-1.273 7.18,-2.33 0.941,-0.433 2.052,-0.238 2.79,0.49 l 4.72,4.6 c 1.823,-1.116 3.555,-2.373 5.18,-3.76 l -3,-6 c -0.46,-0.929 -0.301,-2.046 0.4,-2.81 1.718,-1.852 3.211,-3.899 4.45,-6.1 0.512,-0.902 1.524,-1.398 2.55,-1.25 l 6.55,1 c 0.833,-1.972 1.502,-4.009 2,-6.09 l -5.88,-3.07 c -0.881,-0.501 -1.375,-1.484 -1.25,-2.49 0.293,-2.508 0.293,-5.042 0,-7.55 -0.12,-1.029 0.404,-2.026 1.32,-2.51 l 5.88,-3.07 c -0.501,-2.081 -1.17,-4.117 -2,-6.09 l -6.55,1 c -1.026,0.148 -2.038,-0.348 -2.55,-1.25 -1.238,-2.199 -2.728,-4.246 -4.44,-6.1 -0.707,-0.761 -0.87,-1.879 -0.41,-2.81 l 3,-5.94 c -1.642,-1.407 -3.398,-2.675 -5.25,-3.79 l -4.73,4.63 c -0.74,0.724 -1.851,0.916 -2.79,0.48 -2.293,-1.055 -4.703,-1.834 -7.18,-2.32 -1.015,-0.192 -1.808,-0.985 -2,-2 l -1.1,-6.57 c -2.13,-0.17 -4.27,-0.17 -6.4,0 l -1.11,6.53 c -0.192,1.015 -0.985,1.808 -2,2 -2.477,0.486 -4.887,1.265 -7.18,2.32 -0.939,0.436 -2.05,0.244 -2.79,-0.48 L 516,263.66 c -1.827,1.109 -3.56,2.367 -5.18,3.76 l 3,5.94 c 0.46,0.931 0.297,2.049 -0.41,2.81 -1.711,1.855 -3.201,3.902 -4.44,6.1 -0.512,0.902 -1.524,1.398 -2.55,1.25 l -6.55,-1 c -0.825,1.975 -1.494,4.011 -2,6.09 l 5.89,3.07 c 0.916,0.484 1.44,1.481 1.32,2.51 -0.293,2.508 -0.293,5.042 0,7.55 0.12,1.029 -0.404,2.026 -1.32,2.51 l -5.89,3.07 c 0.506,2.079 1.175,4.115 2,6.09 l 6.55,-1 c 1.026,-0.147 2.038,0.348 2.55,1.25 1.238,2.199 2.728,4.246 4.44,6.1 0.707,0.761 0.87,1.879 0.41,2.81 l -3,5.94 c 1.621,1.414 3.353,2.695 5.18,3.83 l 4.73,-4.63 c 0.737,-0.73 1.851,-0.922 2.79,-0.48 2.297,1.046 4.706,1.824 7.18,2.32 1.017,0.187 1.813,0.983 2,2 z"
             fill="#d74200"
             fill-rule="nonzero"
             fill-opacity="1"
             id="path934" />
          <path
             d="m 537,317.31 c -10.676,-0.011 -19.321,-8.673 -19.311,-19.349 0.001,-0.826 0.055,-1.652 0.161,-2.471 1.188,-8.656 7.994,-15.462 16.65,-16.65 10.601,-1.209 20.176,6.405 21.385,17.007 1.181,10.358 -6.07,19.786 -16.385,21.303 -0.829,0.108 -1.664,0.161 -2.5,0.16 z m 0,-33.62 c -7.181,-0.011 -13.255,5.31 -14.19,12.43 -1.027,7.847 4.501,15.042 12.349,16.069 1.232,0.161 2.479,0.161 3.711,10e-4 7.837,-1.021 13.362,-8.202 12.341,-16.039 -0.93,-7.136 -7.015,-12.471 -14.211,-12.461 z"
             fill="#d74200"
             fill-rule="nonzero"
             fill-opacity="1"
             id="path936" />
          <path
             d="m 537,239 c 32.585,0 59,26.415 59,59 0,32.585 -26.415,59 -59,59 -32.585,0 -59,-26.415 -59,-59 0.039,-32.569 26.431,-58.961 59,-59 m 0,-5 c -35.346,0 -64,28.654 -64,64 0,35.346 28.654,64 64,64 35.346,0 64,-28.654 64,-64 0,-35.346 -28.654,-64 -64,-64 z"
             fill="#d74200"
             fill-rule="nonzero"
             fill-opacity="1"
             id="path938" />
        </g>
      </g>
    </g>
  </g>
</svg>
