<?xml version="1.0" encoding="UTF-8" standalone="no"?>
<svg
   id="outlined"
   viewBox="0 0 16 16"
   version="1.1"
   sodipodi:docname="key16x.svg"
   width="16"
   height="16"
   inkscape:version="1.1 (c4e8f9e, 2021-05-24)"
   xmlns:inkscape="http://www.inkscape.org/namespaces/inkscape"
   xmlns:sodipodi="http://sodipodi.sourceforge.net/DTD/sodipodi-0.dtd"
   xmlns="http://www.w3.org/2000/svg"
   xmlns:svg="http://www.w3.org/2000/svg">
  <defs
     id="defs857" />
  <sodipodi:namedview
     id="namedview855"
     pagecolor="#ffffff"
     bordercolor="#666666"
     borderopacity="1.0"
     inkscape:pageshadow="2"
     inkscape:pageopacity="0.0"
     inkscape:pagecheckerboard="0"
     showgrid="false"
     fit-margin-top="0"
     fit-margin-left="0"
     fit-margin-right="0"
     fit-margin-bottom="0"
     inkscape:zoom="22.616273"
     inkscape:cx="8.2020589"
     inkscape:cy="15.431367"
     inkscape:window-width="1280"
     inkscape:window-height="1312"
     inkscape:window-x="3072"
     inkscape:window-y="593"
     inkscape:window-maximized="0"
     inkscape:current-layer="outlined" />
  <path
     d="m 2.9024028,8.7263637 a 0.82308359,0.82308359 0 1 1 0.821568,-0.821568 0.82156778,0.82156778 0 0 1 -0.821568,0.821568 z m 0,-1.189909 a 0.36834127,0.36834127 0 1 0 0.366825,0.368341 0.36834127,0.36834127 0 0 0 -0.366825,-0.368341 z"
     style="fill:#d74200;stroke-width:0.151581"
     id="path824" />
  <path
     d="m 9.1172148,4.6336827 a 0.82308359,0.82308359 0 1 1 0.821567,-0.821568 0.82156778,0.82156778 0 0 1 -0.821567,0.821568 z m 0,-1.189909 a 0.36834127,0.36834127 0 1 0 0.366825,0.368341 0.36834127,0.36834127 0 0 0 -0.366825,-0.368341 z"
     style="fill:#d74200;stroke-width:0.151581"
     id="path826" />
  <path
     d="m 4.0453218,10.696914 a 2.8042443,2.8042443 0 1 1 2.649632,-3.7137293 h 6.2148122 a 0.98527501,0.98527501 0 0 1 0,1.97055 H 6.6388688 a 2.8027285,2.8027285 0 0 1 -2.593547,1.7431793 z m 0,-5.1537463 a 2.3495019,2.3495019 0 1 0 2.220658,3.107405 0.22888696,0.22888696 0 0 1 0.215245,-0.15158 h 6.4315722 a 0.530533,0.530533 0 0 0 0,-1.061066 H 6.5282148 a 0.22737116,0.22737116 0 0 1 -0.219792,-0.166739 2.3540494,2.3540494 0 0 0 -2.263101,-1.72802 z"
     style="fill:#d74200;stroke-width:0.151581"
     id="path828" />
  <path
     d="M 12.912797,10.621123 H 11.897206 A 0.22433954,0.22433954 0 0 1 11.698635,10.504406 L 11.424274,10.0148 H 10.487505 A 0.22737116,0.22737116 0 0 1 10.260134,9.7874287 v -1.061065 a 0.22737116,0.22737116 0 0 1 0.227371,-0.227371 h 2.425292 a 0.22737116,0.22737116 0 0 1 0.227371,0.227371 v 1.6673883 a 0.22737116,0.22737116 0 0 1 -0.227371,0.227371 z m -0.8822,-0.454742 h 0.654829 V 8.9537347 h -1.97055 v 0.606323 h 0.844305 a 0.22737116,0.22737116 0 0 1 0.198571,0.116717 z"
     style="fill:#d74200;stroke-width:0.151581"
     id="path830" />
  <path
     d="m 9.1232778,7.4379267 a 0.22737116,0.22737116 0 0 1 -0.227371,-0.227371 v -2.728454 a 0.22737116,0.22737116 0 0 1 0.454742,0 v 2.728454 a 0.22737116,0.22737116 0 0 1 -0.227371,0.227371 z"
     style="fill:#d74200;stroke-width:0.151581"
     id="path832" />
  <path
     d="m 10.936184,2.6631327 a 0.82308359,0.82308359 0 1 1 0.821568,-0.821568 0.82156778,0.82156778 0 0 1 -0.821568,0.821568 z m 0,-1.189909 a 0.36834127,0.36834127 0 1 0 0.366825,0.368341 0.36834127,0.36834127 0 0 0 -0.366825,-0.368341 z"
     style="fill:#d74200;stroke-width:0.151581"
     id="path834" />
  <path
     d="M 10.032762,7.4379267 A 0.22737116,0.22737116 0 0 1 9.8053908,7.2105557 v -1.061065 a 0.22737116,0.22737116 0 0 1 0.0667,-0.160676 L 10.71488,5.1460257 v -2.634474 a 0.22737116,0.22737116 0 0 1 0.454742,0 v 2.728454 a 0.22737116,0.22737116 0 0 1 -0.06669,0.160676 l -0.842789,0.842789 v 0.967085 a 0.22737116,0.22737116 0 0 1 -0.227372,0.227371 z"
     style="fill:#d74200;stroke-width:0.151581"
     id="path836" />
  <path
     d="m 6.8435028,2.6631327 a 0.82308359,0.82308359 0 1 1 0.821568,-0.821568 0.82156778,0.82156778 0 0 1 -0.821568,0.821568 z m 0,-1.189909 a 0.36834127,0.36834127 0 1 0 0.366826,0.368341 0.36834127,0.36834127 0 0 0 -0.366826,-0.368341 z"
     style="fill:#d74200;stroke-width:0.151581"
     id="path838" />
  <path
     d="m 8.0622118,7.4379267 a 0.22737116,0.22737116 0 0 1 -0.227371,-0.227371 v -1.884149 l -1.155045,-1.299047 a 0.22585535,0.22585535 0 0 1 -0.0576,-0.151581 v -1.364227 a 0.22737116,0.22737116 0 0 1 0.454742,0 v 1.277826 l 1.155046,1.299047 a 0.22585535,0.22585535 0 0 1 0.0576,0.151581 v 1.97055 a 0.22737116,0.22737116 0 0 1 -0.227372,0.227371 z"
     style="fill:#d74200;stroke-width:0.151581"
     id="path840" />
  <path
     d="m 8.6624718,13.046416 a 0.82308359,0.82308359 0 1 1 0.821568,-0.821568 0.82156778,0.82156778 0 0 1 -0.821568,0.821568 z m 0,-1.189909 a 0.36834127,0.36834127 0 1 0 0.366826,0.368341 0.36834127,0.36834127 0 0 0 -0.366826,-0.368341 z"
     style="fill:#d74200;stroke-width:0.151581"
     id="path842" />
  <path
     d="M 8.6564088,11.780716 A 0.22737116,0.22737116 0 0 1 8.4290378,11.553345 V 8.8248907 a 0.22737116,0.22737116 0 0 1 0.454742,0 v 2.7284543 a 0.22737116,0.22737116 0 0 1 -0.227371,0.227371 z"
     style="fill:#d74200;stroke-width:0.151581"
     id="path844" />
  <path
     d="m 6.8435028,15.016966 a 0.82308359,0.82308359 0 1 1 0.821568,-0.821568 0.82156778,0.82156778 0 0 1 -0.821568,0.821568 z m 0,-1.189909 a 0.36834127,0.36834127 0 1 0 0.366826,0.368341 0.36834127,0.36834127 0 0 0 -0.366826,-0.368341 z"
     style="fill:#d74200;stroke-width:0.151581"
     id="path846" />
  <path
     d="m 6.8374398,13.751266 a 0.22737116,0.22737116 0 0 1 -0.227371,-0.227371 v -2.728454 a 0.23040277,0.23040277 0 0 1 0.0667,-0.160675 l 0.842789,-0.8427893 v -0.967086 a 0.2273715,0.2273715 0 0 1 0.454743,0 v 1.061066 a 0.22737116,0.22737116 0 0 1 -0.0667,0.1606753 l -0.842789,0.842789 v 2.634474 a 0.22737116,0.22737116 0 0 1 -0.227372,0.227371 z"
     style="fill:#d74200;stroke-width:0.151581"
     id="path848" />
  <path
     d="m 10.936184,15.016966 a 0.82308359,0.82308359 0 1 1 0.821568,-0.821568 0.82156778,0.82156778 0 0 1 -0.821568,0.821568 z m 0,-1.189909 a 0.36834127,0.36834127 0 1 0 0.366825,0.368341 0.36834127,0.36834127 0 0 0 -0.366825,-0.368341 z"
     style="fill:#d74200;stroke-width:0.151581"
     id="path850" />
  <path
     d="M 10.930121,13.751266 A 0.22737116,0.22737116 0 0 1 10.702749,13.523895 V 12.246069 L 9.5477038,10.947022 a 0.23040277,0.23040277 0 0 1 -0.0576,-0.151581 V 8.8248907 a 0.2273715,0.2273715 0 0 1 0.454743,0 V 10.70904 l 1.1550452,1.300563 a 0.22130793,0.22130793 0 0 1 0.0576,0.151581 v 1.364227 a 0.22737116,0.22737116 0 0 1 -0.227371,0.225855 z"
     style="fill:#d74200;stroke-width:0.151581"
     id="path852" />
</svg>
